<svg xmlns="http://www.w3.org/2000/svg" width="32" height="32" viewBox="0 0 32 32" fill="none">
  <circle cx="16" cy="16" r="15" fill="#023E8A"/>
  <circle cx="16" cy="16" r="15" fill="url(#depth)" />
  <path d="M6 14c2-2 4-2 6 0s4 2 6 0 4-2 6 0" stroke="#CAF0F8" stroke-width="1.5" stroke-linecap="round" opacity="0.9"/>
  <path d="M6 18c2-2 4-2 6 0s4 2 6 0 4-2 6 0" stroke="#90E0EF" stroke-width="1.5" stroke-linecap="round" opacity="0.6"/>
  <path d="M8 22c2-1.5 3-1.5 5 0s3 1.5 5 0 3-1.5 5 0" stroke="#7B2FBE" stroke-width="1" stroke-linecap="round" opacity="0.35"/>
  <circle cx="16" cy="10" r="1.5" fill="#CAF0F8" opacity="0.7"/>
  <circle cx="12" cy="8" r="0.8" fill="#CAF0F8" opacity="0.4"/>
  <circle cx="20" cy="9" r="1" fill="#90E0EF" opacity="0.5"/>
  <defs>
    <radialGradient id="depth" cx="0.5" cy="0" r="1">
      <stop offset="0%" stop-color="#0077B6" stop-opacity="0.5"/>
      <stop offset="100%" stop-color="#050510" stop-opacity="0.8"/>
    </radialGradient>
  </defs>
</svg>
